Coordinates
version=1
nRows=8
nColumns=40
inDegrees=yes

Units are S.I. units (second, meters, Newtons, ...)
Angles are in degrees.

endheader
time	pelvis_tilt	pelvis_list	pelvis_rotation	pelvis_tx	pelvis_ty	pelvis_tz	hip_flexion_r	hip_adduction_r	hip_rotation_r	knee_angle_r	knee_angle_r_beta	ankle_angle_r	subtalar_angle_r	mtp_angle_r	hip_flexion_l	hip_adduction_l	hip_rotation_l	knee_angle_l	knee_angle_l_beta	ankle_angle_l	subtalar_angle_l	mtp_angle_l	lumbar_extension	lumbar_bending	lumbar_rotation	arm_flex_r	arm_add_r	arm_rot_r	elbow_flex_r	pro_sup_r	wrist_flex_r	wrist_dev_r	arm_flex_l	arm_add_l	arm_rot_l	elbow_flex_l	pro_sup_l	wrist_flex_l	wrist_dev_l
      0.00000000	     -0.50486988	     -3.31386576	     10.87403951	     -1.18159502	      0.94113443	     -1.37881533	     24.46541294	      0.74240718	    -21.26398858	    -22.29826662	     -0.38917817	     -3.65175213	     -6.59044178	      1.67357839	    -14.97025688	     10.42588545	     20.54536005	    -22.80323260	     -0.39799149	     -2.33978241	     -6.59351620	    -14.22405861	     -5.65897000	      3.38689308	     -8.86036260	     -3.68129339	     -9.53284284	    -19.73963409	     14.96062110	     89.95437384	      0.00000000	      0.00000000	      9.07492398	     21.18526620	     29.71787848	     39.56362589	     89.95437384	      0.00000000	      0.00000000
      0.01000000	     -0.35977529	     -3.37508019	     10.81222528	     -1.17010984	      0.94266509	     -1.37815116	     23.82149634	      1.12855243	    -20.73739366	    -22.77878258	     -0.39756476	     -2.88714803	     -6.88953924	      1.53291889	    -14.58116505	     10.88966144	     19.88676582	    -24.64890936	     -0.43020463	     -4.27829790	     -5.29931089	    -13.40694214	     -5.60665491	      3.40817036	     -8.80666020	     -3.90553080	     -9.53142744	    -19.60439733	     14.56353892	     89.95437384	      0.00000000	      0.00000000	      8.31285867	     20.88868547	     29.51605942	     39.92917742	     89.95437384	      0.00000000	      0.00000000
      0.02000000	     -0.19988348	     -4.11493433	     10.86873035	     -1.15868787	      0.94412421	     -1.37675610	     22.94586267	      2.54625264	    -19.94500313	    -22.32610004	     -0.38966395	     -2.86969087	     -8.67566078	      1.92992778	    -13.70155172	     12.25539252	     19.31926013	    -27.12099439	     -0.47335065	     -5.94878358	     -3.63785560	    -12.71901881	     -5.43931900	      4.11463294	     -8.77168157	     -4.05322657	     -9.56255716	    -19.47861988	     14.04555457	     89.95437384	      0.00000000	      0.00000000	      7.46547214	     20.59454522	     29.10074176	     40.34175873	     89.95437384	      0.00000000	      0.00000000
      0.03000000	     -0.21654277	     -4.41443745	     10.85347741	     -1.14788766	      0.94549431	     -1.37564963	     22.20805416	      3.36713671	    -19.27081218	    -22.00662577	     -0.38408808	     -2.52101926	     -9.85733155	      2.63931896	    -12.47546536	     13.00258539	     18.42660301	    -29.68850397	     -0.51816214	     -7.96705543	     -1.93841159	    -11.80364511	     -5.21794784	      4.31905379	     -8.68530679	     -4.17025132	     -9.55212047	    -19.32544399	     13.60263892	     89.95437384	      0.00000000	      0.00000000	      6.73890069	     20.29682233	     28.70284062	     40.59856422	     89.95437384	      0.00000000	      0.00000000
      0.04000000	     -0.41124989	     -4.65681900	     10.87591357	     -1.13760841	      0.94658553	     -1.37455187	     21.69926186	      3.96814698	    -18.86944061	    -21.77818491	     -0.38010103	     -1.98761461	    -10.33548295	      3.12995722	    -10.79875312	     13.50076358	     16.94937508	    -32.39169133	     -0.56534166	     -9.99481348	      0.45484211	    -10.86208461	     -4.84731355	      4.42482550	     -8.66348382	     -4.21889980	     -9.46989806	    -19.47154451	     13.26253920	     89.95437384	      0.00000000	      0.00000000	      6.06366081	     20.07564787	     28.10379269	     40.63933641	     89.95437384	      0.00000000	      0.00000000
      0.05000000	     -0.66008813	     -4.81963437	     10.93135928	     -1.12796218	      0.94766783	     -1.37377139	     21.25094848	      4.37377193	    -18.67601077	    -21.53708116	     -0.37589298	     -1.51844802	    -10.37802289	      3.24223489	     -8.87272287	     13.80735528	     15.33244530	    -35.19395074	     -0.61425032	    -11.91314517	      2.56169281	    -10.01466664	     -4.51025472	      4.46941267	     -8.57110404	     -4.28978719	     -9.44998613	    -19.39646023	     13.01981470	     89.95437384	      0.00000000	      0.00000000	      5.52786477	     19.83696962	     27.38379996	     40.60518570	     89.95437384	      0.00000000	      0.00000000
      0.06000000	     -1.02811746	     -4.90076051	     10.96090134	     -1.11870145	      0.94848447	     -1.37320248	     20.97384358	      4.62219164	    -18.48188050	    -21.39478176	     -0.37340938	     -0.97308312	    -10.33795655	      3.22026183	     -6.68048252	     13.94535736	     13.84707359	    -38.19236537	     -0.66658252	    -12.90292979	      4.52873412	     -9.44992108	     -4.08091025	      4.43161592	     -8.46023552	     -4.36166941	     -9.43546213	    -19.48480382	     12.88275516	     89.95437384	      0.00000000	      0.00000000	      5.03491911	     19.56624582	     26.64920936	     40.43825349	     89.95437384	      0.00000000	      0.00000000
      0.07000000	     -1.63467265	     -4.97139668	     11.03801087	     -1.11013134	      0.94885517	     -1.37270606	     21.09759698	      4.68717958	    -18.59075316	    -21.46292297	     -0.37459867	     -0.62539263	    -10.36120000	      3.26709823	     -4.01171894	     13.94322921	     12.35544832	    -41.45764188	     -0.72357235	    -12.24067905	      6.96180866	     -9.08893254	     -3.47790010	      4.33430766	     -8.36811069	     -4.40080711	     -9.38979574	    -19.72361403	     12.88392078	     89.95437384	      0.00000000	      0.00000000	      4.66172610	     19.25715068	     26.02277315	     40.14961654	     89.95437384	      0.00000000	      0.00000000
